<?xml version="1.0" encoding="utf-8"?>
<!-- Generated by IcoMoon.io -->
<!DOCTYPE svg PUBLIC "-//W3C//DTD SVG 1.1//EN" "http://www.w3.org/Graphics/SVG/1.1/DTD/svg11.dtd">
<svg version="1.1" xmlns="http://www.w3.org/2000/svg" xmlns:xlink="http://www.w3.org/1999/xlink" width="30" height="30" viewBox="0 0 30 30">
<path fill="#cd3333" d="M27.188 0h-20.625c-1.553 0-2.813 1.258-2.813 2.813v1.875h-0.938c-1.553 0-2.813 1.258-2.813 2.813v18.75c0 2.071 1.679 3.75 3.75 3.75h22.5c2.071 0 3.75-1.679 3.75-3.75v-23.438c0-1.554-1.26-2.813-2.813-2.813zM28.125 26.25c0 1.033-0.842 1.875-1.875 1.875h-22.5c-1.034 0-1.875-0.842-1.875-1.875v-18.75c0-0.518 0.42-0.938 0.938-0.938h0.938v18.75c0 0.518 0.419 0.938 0.938 0.938s0.938-0.419 0.938-0.938v-22.5c0-0.518 0.42-0.938 0.938-0.938h20.625c0.517 0 0.938 0.42 0.938 0.938v23.438zM18.279 12.192c-0.258 0-0.469-0.21-0.469-0.469s0.211-0.469 0.469-0.469h7.5c0.26 0 0.469 0.21 0.469 0.469s-0.209 0.469-0.469 0.469h-7.5zM18.279 9.38c-0.258 0-0.469-0.21-0.469-0.469s0.211-0.469 0.469-0.469h7.5c0.26 0 0.469 0.21 0.469 0.469s-0.209 0.469-0.469 0.469h-7.5zM18.279 6.567c-0.258 0-0.469-0.21-0.469-0.469s0.211-0.469 0.469-0.469h7.5c0.26 0 0.469 0.21 0.469 0.469s-0.209 0.469-0.469 0.469h-7.5zM15.469 25.316c0.259 0 0.469 0.211 0.469 0.469 0 0.26-0.211 0.469-0.469 0.469h-7.5c-0.259 0-0.469-0.209-0.469-0.469 0-0.258 0.21-0.469 0.469-0.469h7.5zM15.469 22.504c0.259 0 0.469 0.211 0.469 0.469 0 0.26-0.211 0.469-0.469 0.469h-7.5c-0.259 0-0.469-0.209-0.469-0.469 0-0.258 0.21-0.469 0.469-0.469h7.5zM15.469 19.691c0.259 0 0.469 0.211 0.469 0.469 0 0.26-0.211 0.469-0.469 0.469h-7.5c-0.259 0-0.469-0.209-0.469-0.469 0-0.258 0.21-0.469 0.469-0.469h7.5zM25.781 25.316c0.258 0 0.469 0.211 0.469 0.469 0 0.26-0.211 0.469-0.469 0.469h-7.5c-0.26 0-0.469-0.209-0.469-0.469 0-0.258 0.209-0.469 0.469-0.469h7.5zM25.781 22.504c0.258 0 0.469 0.211 0.469 0.469 0 0.26-0.211 0.469-0.469 0.469h-7.5c-0.26 0-0.469-0.209-0.469-0.469 0-0.258 0.209-0.469 0.469-0.469h7.5zM25.781 19.691c0.258 0 0.469 0.211 0.469 0.469 0 0.26-0.211 0.469-0.469 0.469h-7.5c-0.26 0-0.469-0.209-0.469-0.469 0-0.258 0.209-0.469 0.469-0.469h7.5zM25.781 14.066c0.258 0 0.469 0.21 0.469 0.469s-0.211 0.469-0.469 0.469h-17.813c-0.259 0-0.469-0.21-0.469-0.469s0.21-0.469 0.469-0.469h17.813zM25.781 16.879c0.258 0 0.469 0.211 0.469 0.469 0 0.26-0.211 0.469-0.469 0.469h-17.813c-0.259 0-0.469-0.209-0.469-0.469 0-0.258 0.21-0.469 0.469-0.469h17.813zM8.438 12.188h6.563c0.518 0 0.938-0.419 0.938-0.938v-6.559c0-0.518-0.419-0.937-0.938-0.937h-6.563c-0.518 0-0.938 0.419-0.938 0.937v6.559c0 0.518 0.419 0.938 0.938 0.938zM9.375 5.625h4.688v4.688h-4.688v-4.688z"></path>
</svg>
