<?xml version="1.0" encoding="utf-8"?>
<!-- Generated by IcoMoon.io -->
<!DOCTYPE svg PUBLIC "-//W3C//DTD SVG 1.1//EN" "http://www.w3.org/Graphics/SVG/1.1/DTD/svg11.dtd">
<svg version="1.1" xmlns="http://www.w3.org/2000/svg" xmlns:xlink="http://www.w3.org/1999/xlink" width="30" height="30" viewBox="0 0 30 30">
<path fill="#cd3333" d="M28.125 24.375c-1.035 0-1.875-0.84-1.875-1.875v-7.5c0-6.213-5.037-11.25-11.25-11.25s-11.25 5.037-11.25 11.25v7.5c0 1.035-0.84 1.875-1.875 1.875s-1.875-0.84-1.875-1.875v-7.5c0-8.285 6.716-15 15-15s15 6.715 15 15v7.5c0 1.035-0.84 1.875-1.875 1.875zM6.563 16.875h1.875c0.518 0 0.938 0.419 0.938 0.938v9.375c0 0.518-0.42 0.938-0.938 0.938h-1.875c-0.518 0-0.938-0.419-0.938-0.938v-9.375c0-0.518 0.42-0.938 0.938-0.938zM21.563 16.875h1.875c0.518 0 0.938 0.419 0.938 0.938v9.375c0 0.518-0.419 0.938-0.938 0.938h-1.875c-0.518 0-0.938-0.419-0.938-0.938v-9.375c0-0.518 0.419-0.938 0.938-0.938z"></path>
</svg>
