<svg width="82" height="61" viewBox="0 0 82 61" xmlns="http://www.w3.org/2000/svg" xmlns:xlink="http://www.w3.org/1999/xlink"><svg width="20" height="20" viewBox="-2 -2 20 20" id="L1VzZXJzL3J1aS93d3dyb290L21pc3NldmFuLW1vYmlsZS9wdWJsaWMvYXNzZXRzL2ltYWdlcy9zdmcvY2hlY2tlZC5zdmc=" x="24" xmlns="http://www.w3.org/2000/svg"><g transform="translate(1 1)" fill="none" fill-rule="evenodd"><circle stroke="#E63C3C" fill="#E63C3C" cx="7" cy="7" r="7"/><path d="M3.571 7l2.286 2.4m4.572-4.8L5.857 9.4" stroke="#FFF" stroke-width="1.65" stroke-linecap="round"/></g></svg><svg id="L1VzZXJzL3J1aS93d3dyb290L21pc3NldmFuLW1vYmlsZS9wdWJsaWMvYXNzZXRzL2ltYWdlcy9zdmcvZGlhbW9uZC5zdmc=" y="24" viewBox="-2 -2 20 17" width="20" height="17" xmlns="http://www.w3.org/2000/svg"><style>.bst0{clip-path:url(#bSVGID_2_)}.bst1{clip-path:url(#bSVGID_4_);fill:#fff}</style><defs><path id="bSVGID_1_" d="M3.6 0h3.7L4.1 4H0l3.6-4zM12 4.7h4l-7 7.7 3-7.7zM5.1 4L8 .2 10.9 4H5.1zm6.1.7L8 13 4.8 4.7h6.4zM4 4.7l3 7.7-7-7.7h4zM16 4h-4.1L8.7 0h3.7L16 4z"/></defs><clipPath id="bSVGID_2_"><use xlink:href="#bSVGID_1_" overflow="visible"/></clipPath><g class="bst0"><defs><path id="bSVGID_3_" d="M-109-544h375v927h-375z"/></defs><clipPath id="bSVGID_4_"><use xlink:href="#bSVGID_3_" overflow="visible"/></clipPath><path class="bst1" d="M-5-5h26v23H-5z"/></g></svg><svg width="24" height="24" fill="#fff" viewBox="-2 -2 24 24" id="L1VzZXJzL3J1aS93d3dyb290L21pc3NldmFuLW1vYmlsZS9wdWJsaWMvYXNzZXRzL2ltYWdlcy9zdmcvbG9hZGluZy1zcGluLnN2Zw==" xmlns="http://www.w3.org/2000/svg"><path opacity=".25" d="M10 0a10 10 0 0 0 0 20 10 10 0 0 0 0-20m0 2.5a7.5 7.5 0 0 1 0 15 7.5 7.5 0 0 1 0-15"/><path d="M10 0a10 10 0 0 1 10 10h-2.5A7.5 7.5 0 0 0 10 2.5z"><animateTransform attributeName="transform" type="rotate" from="0 10 10" to="360 10 10" dur="0.8s" repeatCount="indefinite"/></path></svg><svg id="L1VzZXJzL3J1aS93d3dyb290L21pc3NldmFuLW1vYmlsZS9wdWJsaWMvYXNzZXRzL2ltYWdlcy9zdmcvbGl2ZS5zdmc=" x="44" viewBox="-2 -2 20 20" width="20" height="20" xmlns="http://www.w3.org/2000/svg"><style>.dst0,.dst1{fill:none;stroke:#cd3333;stroke-width:1.21}.dst1{stroke-linecap:round}</style><g id="dPage-1"><g id="d首页_菜单展开_已登录" transform="translate(-7 -256)"><g id="dGroup-22" transform="translate(0 247)"><g id="dGroup-6" transform="translate(7 9)"><g id="d我的直播" transform="translate(4.941 2.47)"><path id="dStroke-1" class="dst0" d="M.1 5.2c0 1.6 1.3 2.9 3 2.9s3-1.3 3-2.9V1.1c0-1.6-1.3-2.9-3-2.9S.1-.5.1 1.1v4.1z"/><path id="dStroke-3" class="dst1" d="M8.2 5.1c0 2.8-2.3 5-5.1 5S-2 7.9-2 5.1"/><path id="dStroke-5" class="dst1" d="M3.1 10.1v2.1"/><path id="dStroke-7" class="dst1" d="M-.5 12.9H7"/></g></g></g></g></g></svg><svg width="20" height="20" viewBox="-2 -2 20 20" id="L1VzZXJzL3J1aS93d3dyb290L21pc3NldmFuLW1vYmlsZS9wdWJsaWMvYXNzZXRzL2ltYWdlcy9zdmcvbmV3cy5zdmc=" x="44" y="20" xmlns="http://www.w3.org/2000/svg"><path d="M5 5.5h2.5V3H5v2.5zm-.5 1h3.501a.5.5 0 0 0 .5-.5V2.502a.5.5 0 0 0-.5-.5h-3.5a.5.5 0 0 0-.5.5V6a.5.5 0 0 0 .5.5zm9.25 2.502a.25.25 0 0 1 0 .5h-9.5a.25.25 0 1 1 0-.5h9.5zm0-1.5a.25.25 0 0 1 0 .5h-9.5a.25.25 0 0 1 0-.5h9.5zm0 3a.25.25 0 0 1 0 .5h-4a.25.25 0 0 1 0-.5h4zm0 1.5a.25.25 0 0 1 0 .5h-4a.25.25 0 0 1 0-.5h4zm0 1.5a.25.25 0 0 1 0 .5h-4a.25.25 0 0 1 0-.5h4zm-5.5-3a.25.25 0 0 1 0 .5h-4a.25.25 0 1 1 0-.5h4zm0 1.5a.25.25 0 0 1 0 .5h-4a.25.25 0 1 1 0-.5h4zm0 1.5a.25.25 0 0 1 0 .5h-4a.25.25 0 1 1 0-.5h4zm1.5-10a.25.25 0 0 1 0-.5h4a.25.25 0 1 1 0 .5h-4zm0 1.5a.25.25 0 0 1 0-.5h4a.25.25 0 1 1 0 .5h-4zm0 1.5a.25.25 0 0 1 0-.5h4a.25.25 0 1 1 0 .5h-4zM15 14c0 .55-.449 1-1 1H2c-.55 0-1-.45-1-1V4a.5.5 0 0 1 .5-.5h.501v10a.5.5 0 1 0 1 0v-12a.5.5 0 0 1 .5-.5h11a.5.5 0 0 1 .501.5V14h-.001zm-.5-14h-11A1.5 1.5 0 0 0 2 1.5v1h-.5A1.5 1.5 0 0 0 0 4v10a2 2 0 0 0 2 2h12a2 2 0 0 0 2-2V1.5A1.5 1.5 0 0 0 14.5 0z" fill="#CD3333" fill-rule="evenodd"/></svg><svg width="20" height="20" viewBox="-2 -2 20 20" id="L1VzZXJzL3J1aS93d3dyb290L21pc3NldmFuLW1vYmlsZS9wdWJsaWMvYXNzZXRzL2ltYWdlcy9zdmcvc291bmQuc3Zn" y="41" xmlns="http://www.w3.org/2000/svg"><path d="M11.5 9h1a.5.5 0 0 1 .5.5v5a.5.5 0 0 1-.5.5h-1a.5.5 0 0 1-.5-.5v-5a.5.5 0 0 1 .5-.5m-8 0h1a.5.5 0 0 1 .5.5v5a.5.5 0 0 1-.5.5h-1a.5.5 0 0 1-.5-.5v-5a.5.5 0 0 1 .5-.5M15 13a1 1 0 0 1-1-1V8A6 6 0 0 0 2 8v4a1 1 0 0 1-2 0V8a8 8 0 0 1 8-8 8 8 0 0 1 8 8v4a1 1 0 0 1-1 1" fill="#CD3333" fill-rule="evenodd"/></svg><svg width="18" height="18" viewBox="-2 -2 18 18" id="L1VzZXJzL3J1aS93d3dyb290L21pc3NldmFuLW1vYmlsZS9wdWJsaWMvYXNzZXRzL2ltYWdlcy9zdmcvc2xpZGUtY2hlY2stZmFpbC5zdmc=" x="64" xmlns="http://www.w3.org/2000/svg"><g fill="none" fill-rule="evenodd"><circle fill="#C14A3F" cx="7" cy="7" r="7"/><path d="M7.262 7l2.484-2.484a.185.185 0 0 0-.262-.262L7 6.738 4.516 4.254a.185.185 0 0 0-.262 0 .185.185 0 0 0 0 .262L6.738 7 4.254 9.484a.185.185 0 0 0 0 .262c.072.072.19.072.262 0L7 7.262l2.484 2.484c.073.072.19.072.262 0a.185.185 0 0 0 0-.262L7.262 7z" stroke="#FFF" fill="#F3F3F3"/></g></svg><svg width="18" height="18" viewBox="-2 -2 18 18" id="L1VzZXJzL3J1aS93d3dyb290L21pc3NldmFuLW1vYmlsZS9wdWJsaWMvYXNzZXRzL2ltYWdlcy9zdmcvc2xpZGUtY2hlY2stc3VjY2Vzcy5zdmc=" x="64" y="18" xmlns="http://www.w3.org/2000/svg"><g fill="none" fill-rule="evenodd"><circle fill="#71BC71" cx="7" cy="7" r="7"/><path d="M6.034 8.488L4.34 6.794a.492.492 0 0 0-.696.696l2.047 2.047a.492.492 0 0 0 .75-.062l4.084-4.085a.492.492 0 1 0-.696-.696L6.034 8.488z" fill="#FFF"/></g></svg><svg id="L1VzZXJzL3J1aS93d3dyb290L21pc3NldmFuLW1vYmlsZS9wdWJsaWMvYXNzZXRzL2ltYWdlcy9zdmcvd2FsbGV0LnN2Zw==" x="20" y="41" viewBox="-2 -2 20 20" width="20" height="20" xmlns="http://www.w3.org/2000/svg"><style>.ist0{fill:#cd3333}.ist1{fill:none;stroke:#cd3333;stroke-width:1.5}</style><g id="iPage-1"><g id="i首页_菜单展开_已登录" transform="translate(-7 -295)"><g id="iGroup-22-Copy" transform="translate(0 286)"><g id="iGroup-2" transform="translate(7 9)"><g id="iGroup-20" transform="translate(1 1)"><g id="iGroup-19" transform="translate(1.95 1.95)"><path id="iPath" class="ist0" d="M8.3 5.6c.2 0 .4-.2.4-.5 0-.2-.2-.5-.4-.5H5.5v-.3l1.8-1.8c.2-.2.2-.4 0-.6-.2-.2-.4-.2-.6 0L5 3.4 3.5 1.8c-.2-.1-.5-.1-.7 0-.1.2-.1.5 0 .6l1.8 1.8v.5H1.8c-.2 0-.4.2-.4.5 0 .2.1.5.4.5h2.8v.9H2.7c-.2-.1-.4.2-.4.4s.1.5.4.5h1.9v1.7c0 .2.2.4.5.4.2 0 .5-.2.5-.4V7.5h1.9c.2 0 .4-.2.4-.5 0-.2-.2-.5-.4-.5h-2v-.9h2.8z"/><circle id="iOval-2" class="ist1" cx="5.1" cy="5.1" r="7.2"/></g></g></g></g></g></g></svg><svg width="20" height="20" viewBox="-2 -2 20 20" id="L1VzZXJzL3J1aS93d3dyb290L21pc3NldmFuLW1vYmlsZS9wdWJsaWMvYXNzZXRzL2ltYWdlcy9zdmcvdW5jaGVja2VkLnN2Zw==" x="40" y="41" xmlns="http://www.w3.org/2000/svg"><circle cx="7" cy="7" r="7" transform="translate(1 1)" stroke="#E0E0E0" fill="none" fill-rule="evenodd"/></svg></svg>